<?xml version="1.0" standalone="no"?>
<!DOCTYPE svg PUBLIC "-//W3C//DTD SVG 20010904//EN"
 "http://www.w3.org/TR/2001/REC-SVG-20010904/DTD/svg10.dtd">
<svg version="1.0" xmlns="http://www.w3.org/2000/svg"
 width="698.000000pt" height="698.000000pt" viewBox="0 0 698.000000 698.000000"
 preserveAspectRatio="xMidYMid meet">
<metadata>
Created by potrace 1.11, written by Peter Selinger 2001-2013
</metadata>
<g transform="translate(0.000000,698.000000) scale(0.100000,-0.100000)"
fill="#000000" stroke="none">
<path d="M2585 6169 c-203 -16 -426 -64 -652 -138 -849 -281 -1458 -809 -1730
-1501 -54 -138 -108 -310 -127 -410 -35 -182 -40 -213 -50 -310 -4 -30 -9 -73
-11 -95 -7 -60 -7 -331 0 -405 8 -82 23 -206 30 -245 49 -268 132 -519 228
-689 90 -159 317 -486 421 -605 71 -82 246 -250 311 -299 87 -66 211 -128 290
-147 33 -7 92 -12 130 -10 120 6 110 -8 111 151 2 171 12 430 21 504 3 30 6
69 7 85 l1 30 420 5 420 5 110 287 110 288 632 0 632 0 19 -52 c16 -42 176
-457 199 -515 4 -10 297 -13 1417 -13 l1413 0 0 435 c0 393 -1 435 -16 436 -9
0 -347 1 -751 2 l-735 2 0 1225 0 1225 -562 3 -563 2 -2 -555 -3 -556 -44 103
c-25 57 -57 130 -72 163 -15 33 -47 107 -72 165 -37 86 -171 393 -240 550 -8
19 -25 56 -36 83 l-21 47 -553 0 -553 0 -119 -270 -118 -271 -44 108 c-24 59
-48 117 -52 128 -26 58 -33 160 -17 245 26 135 142 324 311 506 188 203 219
251 183 282 -28 23 -139 31 -273 21z m695 -1911 c0 -7 75 -205 100 -263 4 -11
31 -81 60 -155 28 -74 55 -144 60 -155 4 -11 24 -60 43 -110 l35 -90 -316 -3
c-173 -1 -317 -1 -318 1 -4 4 32 103 106 292 28 72 85 219 127 329 68 176 78
196 90 180 7 -10 13 -21 13 -26z"/>
</g>
</svg>
