<?xml version="1.0" encoding="utf-8"?>
<!-- Generator: Adobe Illustrator 22.1.0, SVG Export Plug-In . SVG Version: 6.00 Build 0)  -->
<svg version="1.1" id="Layer_1" xmlns="http://www.w3.org/2000/svg" xmlns:xlink="http://www.w3.org/1999/xlink" x="0px" y="0px"
	 viewBox="0 0 50 50" style="enable-background:new 0 0 50 50;" xml:space="preserve">
<style type="text/css">
	.st0{fill:none;stroke:#000000;stroke-miterlimit:10;}
</style>
<path class="st0" d="M45.2,7.1c0,0,0.3-2.7-2.2-2.9H4.8c0,0-1.5-0.5-2.2,1.9v28.9c0,0-0.5,1.8,1.7,2.2s21,0,21,0"/>
<line class="st0" x1="2.6" y1="30.9" x2="25" y2="30.9"/>
<line class="st0" x1="21" y1="37.5" x2="19.1" y2="44.4"/>
<line class="st0" x1="15.6" y1="44.8" x2="25" y2="44.8"/>
<path class="st0" d="M28,11.2v28.9c0,0-0.1,3.1,1.7,3.1h15.4c0,0,1.7,0.4,1.9-2.4V11.2c0,0,0.1-2.2-2-2.2H29.8
	C29.8,9,28,9.1,28,11.2z"/>
<line class="st0" x1="27.9" y1="13.5" x2="47" y2="13.5"/>
<line class="st0" x1="28.4" y1="38.2" x2="47.5" y2="38.2"/>
<path d="M36.9,41.6l-0.3-0.3c-0.3-0.3-0.3-0.9,0-1.2l0.3-0.3c0.3-0.3,0.9-0.3,1.2,0l0.3,0.3c0.3,0.3,0.3,0.9,0,1.2l-0.3,0.3
	C37.8,42,37.2,41.9,36.9,41.6z"/>
</svg>
